<?xml version="1.0" encoding="utf-8"?>
<!-- Generator: Adobe Illustrator 26.3.0, SVG Export Plug-In . SVG Version: 6.00 Build 0)  -->
<svg version="1.1" id="Calque_1" xmlns="http://www.w3.org/2000/svg" xmlns:xlink="http://www.w3.org/1999/xlink" x="0px" y="0px"
	 viewBox="0 0 419 184" style="enable-background:new 0 0 419 184;" xml:space="preserve">
<style type="text/css">
	.st0{clip-path:url(#SVGID_00000070097570852709709290000001798789398924959655_);}
	.st1{fill-opacity:0;stroke:#000000;stroke-width:1.2;stroke-dasharray:8.998,8.998;}
	.st2{display:none;}
	.st3{display:inline;}
	.st4{fill:#0A0A0A;}
	.st5{fill:#61E9BD;}
	.st6{fill:#FFFFFF;}
	.st7{fill-opacity:0;stroke:#000000;stroke-width:1.837;}
</style>
<g>
	<g>
		<defs>
			<rect id="SVGID_1_" width="419" height="184"/>
		</defs>
		<clipPath id="SVGID_00000075153705827676095620000008650741001927965847_">
			<use xlink:href="#SVGID_1_"  style="overflow:visible;"/>
		</clipPath>
		<g style="clip-path:url(#SVGID_00000075153705827676095620000008650741001927965847_);">
			<g transform="matrix(1,0,0,1,47.740997314453125,0.5999984741210938)">
				<g transform="matrix(1,0,0,1,0,0)">
					<path class="st1" d="M0,142.5C0,63.8,63.8,0,142.5,0S285,63.8,285,142.5"/>
				</g>
			</g>
			<g>
				<g transform="matrix(1,0,0,1,43.75,167.79998779296875)">
					<g transform="matrix(1,0,0,1,0,0)">
						<path d="M25.3,2.3c0.7,3,4,4.9,8,4.9c5,0,7.9-2.2,7.9-5.6c0-2.8-2-4.6-5.9-5.3L33-4.3c-1.9-0.4-2.4-0.8-2.4-1.7
							c0-1,0.8-1.6,2.4-1.6c1.7,0,2.9,0.9,3.5,2.4l4-1.8c-0.8-1.9-3.1-3.9-7.2-3.9c-4.6,0-7.4,2.1-7.4,5.4s2,4.6,5.7,5.3L34,0.3
							c1.6,0.3,2.1,0.9,2.1,1.8c0,1-1,1.7-2.6,1.7c-1.4,0-2.4-0.3-2.9-1s-0.9-1.3-1-1.9L25.3,2.3z"/>
					</g>
					<g transform="matrix(1,0,0,1,0,0)">
						<path d="M17.2,6.7h4.9v-17.1h-4.9V6.7z M17.1-12.8h5.2v-4.6h-5.2C17.1-17.4,17.1-12.8,17.1-12.8z"/>
					</g>
					<g transform="matrix(1,0,0,1,0,0)">
						<path d="M2.7,6.7h4.9V0.1c0-4.6,1.5-6,5-6c0.6,0,1.2,0,1.9,0.1v-5c-0.1,0-0.4,0-1,0c-3.7,0-5,1.9-5.8,5.5H5.6
							C6.4-6.6,7-8.7,7-10.4H2.7V6.7z"/>
					</g>
					<g transform="matrix(1,0,0,1,0,0)">
						<path d="M-12.9,1.8c0-2.2,2.4-2.8,5.8-3.3v1.1c0,2.7-1.6,4-3.6,4C-12.2,3.7-12.9,3-12.9,1.8z M-9.9-10.9
							c-4.8,0-7.8,2.5-8.1,5.2l4.4,1c0.4-1.7,1.6-2.7,3.8-2.7C-7.9-7.4-7-6.5-7-5v0.7c-6.3,0.7-10.6,2.1-10.8,6.7
							c0,2.9,2.3,4.9,5.5,4.9c2.8,0,4.5-1.6,5.2-4.1h1.6c0.1,2.6,0.7,3.6,3.7,3.6h2V3h-1.5c-0.9,0-1-0.1-1-1v-6.3
							C-2.3-8.7-5-10.9-9.9-10.9z"/>
					</g>
					<g transform="matrix(1,0,0,1,0,0)">
						<path d="M-29.5-13c2.5,0,4.2,1.3,4.2,3.4c0,2.2-1.7,3.5-4.2,3.5h-4.6V-13H-29.5z M-39.3-17.3v24h5.2v-8.4h5.6
							c5.1,0,8.6-3,8.6-7.8c0-4.7-3.6-7.7-8.7-7.7h-10.7V-17.3z"/>
					</g>
				</g>
				<g>
					<path d="M288.6,174.5v-24h9c3.5,0,6.5,1,9,3.2s3.7,5.1,3.6,8.6c0,3.6-1.2,6.6-3.6,8.8c-2.5,2.3-5.5,3.4-9,3.3L288.6,174.5
						L288.6,174.5z M293.8,170.1h3.6c5,0,7.5-2.6,7.5-7.7c0-2.4-0.6-4.2-1.9-5.6c-1.3-1.4-3.1-2-5.4-2h-3.8L293.8,170.1L293.8,170.1
						z"/>
					<path d="M313.9,168.9v-11.5h4.9v10.4c0,2.1,0.9,3.2,2.6,3.2c1.1,0,2-0.5,2.6-1.4s0.9-2.2,0.9-3.8v-8.5h4.9v17.1h-4.5
						c0-1.1,0.6-2.4,1.6-3.9h-2.1c-0.5,1.4-1.2,2.5-2.1,3.3s-2,1.2-3.3,1.2c-1.6,0-2.9-0.6-3.9-1.7
						C314.4,172.2,313.9,170.8,313.9,168.9z"/>
					<path d="M339.4,171h-2.1c1,1.5,1.5,2.6,1.5,3.5h-4.4v-24h4.9v3.4c0,1.8-0.2,3.2-0.5,4.1c-0.3,0.9-0.8,1.9-1.4,2.9h2.1
						c1.1-2.7,3-4,5.8-4c2.1,0,3.8,0.8,5.1,2.5s2,3.9,2,6.6c0,2.7-0.7,4.9-2,6.6c-1.3,1.7-3,2.5-5.1,2.5c-1.6,0-2.8-0.4-3.6-1.1
						S340,172.3,339.4,171z M347.1,165.9c0-3.6-1.3-5.4-4-5.4c-1.3,0-2.3,0.5-3,1.4s-1.1,2.3-1.1,4s0.4,3.1,1.1,4s1.7,1.4,3,1.4
						C345.8,171.3,347.1,169.5,347.1,165.9z"/>
					<path d="M354.8,170.1c0-1.1,0.3-2.1,0.8-2.9c0.5-0.8,1.3-1.5,2.3-2s2.1-0.9,3.3-1.2c1.2-0.3,2.7-0.5,4.3-0.7v-0.7
						c0-1.6-0.9-2.4-2.8-2.4c-2.1,0-3.3,0.9-3.8,2.7l-4.4-1c0.1-1.4,0.9-2.7,2.4-3.7s3.4-1.5,5.7-1.5c2.5,0,4.4,0.6,5.7,1.7
						c1.3,1.1,2,2.8,2,5v6.3c0,0.5,0.1,0.7,0.2,0.9c0.1,0.1,0.4,0.2,0.9,0.2h1.5v3.7h-2c-1.5,0-2.4-0.3-2.9-0.8s-0.8-1.4-0.8-2.8
						h-1.6c-0.9,2.7-2.6,4.1-5.2,4.1c-1.6,0-2.9-0.5-3.9-1.4C355.4,172.7,354.8,171.5,354.8,170.1z M365.6,167.4v-1.1
						c-2,0.3-3.4,0.6-4.4,1.1s-1.4,1.2-1.4,2.2c0,1.2,0.7,1.8,2.2,1.8c1,0,1.9-0.3,2.6-1C365.2,169.7,365.6,168.7,365.6,167.4z"/>
					<path d="M371.9,154.8v-4.1h4.5v4.1H371.9z M375.5,174.5v-17.1h4.9v17.1H375.5z M379.4,154.8v-4.1h4.5v4.1H379.4z"/>
				</g>
			</g>
			<g transform="matrix(1,0,0,1,43.75,167.79998779296875)" class="st2">
				<g transform="matrix(1,0,0,1,0,0)" class="st3">
					<path d="M25.3,2.4c0.7,3,4,4.9,8,4.9c5,0,7.9-2.2,7.9-5.6c0-2.8-2-4.6-5.9-5.3L33-4.2c-1.9-0.4-2.4-0.8-2.4-1.7
						c0-1,0.8-1.6,2.4-1.6c1.7,0,2.9,0.9,3.5,2.4l4-1.8c-0.8-1.9-3.1-3.9-7.2-3.9c-4.6,0-7.4,2.1-7.4,5.4s2,4.6,5.7,5.3L34,0.4
						c1.6,0.3,2.1,0.9,2.1,1.8c0,1-1,1.7-2.6,1.7c-1.4,0-2.4-0.3-2.9-1s-0.9-1.3-1-1.9L25.3,2.4z"/>
				</g>
				<g transform="matrix(1,0,0,1,0,0)" class="st3">
					<path d="M17.2,6.8h4.9v-17.1h-4.9V6.8z M17.1-12.6h5.2v-4.6h-5.2C17.1-17.2,17.1-12.6,17.1-12.6z"/>
				</g>
				<g transform="matrix(1,0,0,1,0,0)" class="st3">
					<path d="M2.7,6.8h4.9V0.2c0-4.6,1.5-6,5-6c0.6,0,1.2,0,1.9,0.1v-5c-0.1,0-0.4,0-1,0c-3.7,0-5,1.9-5.8,5.5H5.6
						C6.4-6.5,7-8.6,7-10.3H2.7V6.8z"/>
				</g>
				<g transform="matrix(1,0,0,1,0,0)" class="st3">
					<path d="M-12.9,1.9c0-2.2,2.4-2.8,5.8-3.3v1.1c0,2.7-1.6,4-3.6,4C-12.2,3.8-12.9,3.1-12.9,1.9z M-9.9-10.8
						c-4.8,0-7.8,2.5-8.1,5.2l4.4,1c0.4-1.7,1.6-2.7,3.8-2.7C-8-7.3-7.1-6.5-7.1-5v0.7c-6.3,0.7-10.6,2.1-10.8,6.7
						c0,2.9,2.3,4.9,5.5,4.9c2.8,0,4.5-1.6,5.2-4.1h1.6c0.1,2.6,0.7,3.6,3.7,3.6h2V3.1h-1.5c-0.9,0-1-0.1-1-1v-6.3
						C-2.3-8.6-5-10.8-9.9-10.8z"/>
				</g>
				<g transform="matrix(1,0,0,1,0,0)" class="st3">
					<path d="M-29.5-12.9c2.5,0,4.2,1.3,4.2,3.4c0,2.2-1.7,3.5-4.2,3.5h-4.6v-6.9H-29.5z M-39.3-17.2v24h5.2v-8.4h5.6
						c5.1,0,8.6-3,8.6-7.8c0-4.7-3.6-7.7-8.7-7.7h-10.7V-17.2z"/>
				</g>
			</g>
			<g transform="matrix(1,0,0,1,332.75,167.79998779296875)" class="st2">
				<g transform="matrix(1,0,0,1,0,0)" class="st3">
					<path d="M67.2,6.8V2.1l2.5-2.4L75,6.8h6.1L73-3.5l7-6.8h-6l-8,8.1l-1.3-1.4c1.6-1.4,2.5-2.6,2.5-6v-7.6h-4.9v24
						C62.3,6.8,67.2,6.8,67.2,6.8z"/>
				</g>
				<g transform="matrix(1,0,0,1,0,0)" class="st3">
					<path d="M47.7,6.8h4.9V0.2c0-4.6,1.5-6,5-6c0.6,0,1.2,0,1.9,0.1v-5c-0.1,0-0.4,0-1,0c-3.7,0-5,1.9-5.8,5.5h-2.1
						c0.8-1.4,1.5-3.5,1.5-5.2h-4.4C47.7-10.4,47.7,6.8,47.7,6.8z"/>
				</g>
				<g transform="matrix(1,0,0,1,0,0)" class="st3">
					<path d="M39.2-1.7c0,3.4-1.5,5.2-3.9,5.2s-3.9-1.7-3.9-5.2S32.8-7,35.3-7S39.2-5.1,39.2-1.7z M26.3-1.8c0,5.2,3.8,9.1,9,9.1
						c5.3,0,9-3.6,9-9.1c0-5.4-3.8-9.1-9-9.1C30.1-10.8,26.3-7.2,26.3-1.8z"/>
				</g>
				<g transform="matrix(1,0,0,1,0,0)" class="st3">
					<path d="M9-17.2L17.7-3v9.8h5.2V-3l8.5-14.2h-5.9L23-12.6c-1.6,2.9-1.7,4.3-1.8,7.2h-1.8c0-2.9-0.2-4.7-1.7-7.2L15-17.3L9-17.2
						L9-17.2z"/>
				</g>
				<g transform="matrix(1,0,0,1,0,0)" class="st3">
					<path d="M-0.3-1.9h12.2v-4.5H-0.3V-1.9z"/>
				</g>
				<g transform="matrix(1,0,0,1,0,0)" class="st3">
					<path d="M-31.3-10.3l5.5,17.1h5.4l1.5-5.6c0.5-1.9,0.7-3.7,0.8-5.2c0-0.8,0-1.9,0.1-3.4h1.9c0,0.3,0,0.4,0,0.5
						c0.1,3,0.1,5.2,0.9,8.1l1.4,5.5H-8l5.5-17.1h-5l-1.2,4.5C-9.4-3.3-9.6-1.7-9.8,0l-0.1,3.5h-1.8c0-2.7-0.2-5.3-0.9-7.9l-1.6-6
						H-20l-1.6,6c-0.7,2.6-0.8,5.1-0.8,7.9H-24c-0.1-3-0.2-5.9-1-8.8l-1.3-5.1L-31.3-10.3L-31.3-10.3z"/>
				</g>
				<g transform="matrix(1,0,0,1,0,0)" class="st3">
					<path d="M-44.8-4c0.3-2.2,1.7-3.3,3.6-3.3c2.1,0,3.3,1.1,3.5,3.3H-44.8z M-49.8-1.8c0,5.6,3.5,9.1,8.7,9.1c3.8,0,6.7-1.4,8.3-5
						l-4.3-1.7c-0.8,1.9-1.9,3-4,3c-2.2,0-3.7-1.4-3.8-4.2h12.1c0-0.4,0-0.8,0-1.2c0-5.2-3.1-9.1-8.3-9.1
						C-46.1-10.8-49.8-7.1-49.8-1.8z"/>
				</g>
				<g transform="matrix(1,0,0,1,0,0)" class="st3">
					<path d="M-76.4-17.2v24h5.2V-4.6c0-3.9-0.9-5.6-2.3-8.4l1.6-1l12.4,20.8h6.3v-24h-5.2v9c0.1,3.8,0.4,4.7,2.2,7.7l-1.5,1.1
						l-10.6-17.8H-76.4z"/>
				</g>
			</g>
			<g transform="matrix(1,0,0,1,209.5,91.0999984741211)">
			</g>
			
				<g transform="matrix(0.39245373010635376,-0.9197717905044556,0.9197717905044556,0.39245373010635376,105.58992004394531,145.73081970214844)">
				<g transform="matrix(1,0,0,1,0,0)">
					<path class="st4" d="M66.1,126.2c5.9-0.1,11.7-1.1,17.3-3c9-2.9,16.9-7.7,23.7-14.2c0.4-0.4,0.7-0.6,0-1
						c-2.9-1.8-5.1-4.4-7.3-6.9c-1.3-1.5-2.7-3-4.6-3.8c-2.7-1.2-5-0.5-6.7,1.9c-1,1.4-1.6,2.9-2.1,4.5c-0.7,2.1-1.5,4.3-2.9,6.1
						c-2.6,3.7-6.6,4.5-10.3,2.2c-2.2-1.4-3.7-3.4-4.9-5.8c-1-2-1.8-4.1-3-6.1c-0.9-1.6-2.2-2.9-3.7-3.8c-1.5-1-3.3-1.5-5.1-1.7
						c-1.8-0.1-3.6,0.2-5.3,0.9c-1.7,0.7-3.1,1.8-4.3,3.2c-2.1,2.4-2.9,5.4-3.6,8.4c-1,4.5-1.5,9.2-3.6,13.4
						c-0.3,0.6,0.2,0.7,0.5,0.9C48.4,124.8,57.2,126.5,66.1,126.2z M126.1,64.1c0-0.5-0.1-1.6-0.2-2.7c-0.5-10-3.3-19.3-8.3-28
						c-2.9-5.1-6.6-9.7-10.8-13.7c-0.4-0.4-0.7-1-1.5-0.4c-2.8,2.2-6.2,3.4-9.5,4.6c-2.9,1-5.9,1.9-8.5,3.4
						c-2.8,1.6-5.1,3.6-6.2,6.7c-1.7,5.1,1.9,9.2,7.1,8.1c2.2-0.4,4.4-1.3,6.7-1.1c2.4,0.2,4.5,0.9,5.6,3.2c1.1,2.2,0.3,4.2-1,6.1
						c-0.7,0.9-1.5,1.8-2.4,2.5c-1.2,0.9-2.4,1.7-3.5,2.8c-2.5,2.3-2.2,5,0.5,7c1.4,1,3.1,1.5,4.8,1.5c2.9,0,5.9-0.3,8.8-0.2
						c5.2,0.2,9.6,2.2,10.5,8.9c0.4,3.2,2.1,5.7,4.5,7.8c0.8,0.7,1.1,0.6,1.4-0.4C125.4,75.1,126,69.9,126.1,64.1z M2.7,62.8
						c-0.1,2.8,0,5.6,0.4,8.4C3.9,78.6,6,85.8,9.3,92.4c0.4,0.8,0.8,0.8,1.5,0.5c1.1-0.5,2.1-1.1,3.1-1.8c2-1.6,3-3.7,2.6-6.3
						c-0.3-2.4-1.4-4.5-2-6.7c-0.7-2.9-0.7-5.8,1.1-8.3c1-1.4,2.4-2.2,4.3-1.9c1.2,0.2,2.5,0.2,3.7,0.1c2.7-0.4,3.7-2.4,2.4-4.8
						c-0.6-1.2-1.4-2.2-2.2-3.3c-1.3-2-1.9-4.1-1.4-6.5c1.1-5.1,6.1-7.7,11.1-5.9c1.9,0.7,3.5,1.9,5.3,2.8c2.2,1.1,4.5,1.8,7,1.2
						c2.4-0.5,4.2-2.4,4.5-4.7c0.2-1.9-0.8-3.5-3.2-4.6c-0.9-0.4-1.7-0.7-2.6-1c-2.7-0.9-5.5-1.7-7.9-3.3c-3.9-2.8-5.8-7.2-4.6-11.2
						c0.9-3,3-4.8,5.6-6.3c1.8-1.1,3.7-2,5.4-3.1c4-2.6,5.3-6.4,4.2-11c-0.2-0.8-0.5-0.9-1.1-0.6c-1.8,0.7-3.6,1.3-5.4,2
						C25.9,13.8,15.1,24.3,8.3,38.8C4.8,46.3,2.9,54.5,2.7,62.8z M103.9,17.1c-0.3-0.2-0.4-0.4-0.6-0.5c-1-0.8-2-1.6-3.1-2.3
						C85.2,3.8,68.7,0.5,50.7,4.2c-0.7,0.2-1.2,0.3-1,1.3c1.5,6.7-0.5,11.2-6.5,14.6c-1.9,1.1-3.9,2.1-5.7,3.4
						c-3.8,2.7-4.2,6.7-1.2,10.3c1.8,2.1,4.1,3.1,6.6,3.9c2,0.6,4,1.2,5.9,2.1s3.3,2.4,4,4.5c1.2,3.9-1.6,8.5-6,9.5
						c-3.5,0.9-6.7,0-9.7-1.6c-1.6-0.9-3.2-2-5-2.5c-2.9-0.9-5.9,0.6-6.8,3.4c-0.6,1.8-0.2,3.4,0.8,5c0.9,1.4,1.9,2.6,2.6,4.1
						c1.5,3.1,0.4,6.1-2.7,7.6c-1.8,0.9-3.6,0.9-5.5,0.7c-2-0.2-2.8,0.3-3.4,2.2c-0.3,1.1-0.4,2.2-0.2,3.3c0.3,2,1.2,3.8,1.7,5.8
						c0.6,1.9,1,3.7,0.6,5.7c-0.8,4-3.5,6.3-7.1,7.8c-0.8,0.3-0.9,0.5-0.4,1.2c6.1,9.9,14.3,17.5,24.6,22.9c0.7,0.3,0.9,0.2,1.2-0.4
						c1-2.1,1.5-4.3,2-6.6c0.8-4,1.3-8,3.1-11.7C45,95.4,49.1,92.2,55,92c6-0.3,10.4,2.5,13.2,7.8c0.9,1.7,1.6,3.4,2.4,5.1
						c0.9,1.9,2.1,3.5,3.8,4.7c2.4,1.6,4.8,1.3,6.6-0.9c1.2-1.5,1.9-3.3,2.6-5.1c0.8-2.3,1.6-4.6,3.2-6.5c2.1-2.5,4.7-3.5,7.9-2.7
						c1.5,0.4,2.8,1,4,1.9c1.7,1.3,3.1,2.9,4.5,4.6c1.7,2,3.6,3.8,5.8,5.2c0.5,0.3,0.8,0.4,1.3-0.1c5.5-6.1,9.7-13.3,12.4-21
						c0.2-0.5,0.2-0.8-0.3-1.1c-4.2-2.8-6.4-6.7-7.1-11.6c-0.4-2.8-2.2-4.3-4.8-5c-1.7-0.4-3.5-0.6-5.2-0.4c-2,0.1-3.9,0.3-5.9,0.3
						c-3.6,0-6.7-1.1-8.9-4.2c-1.8-2.5-1.7-5.5,0.3-7.9c0.9-1.1,2-2,3.1-2.8c0.9-0.7,1.9-1.3,2.7-2.2c1.1-1.2,2.4-2.5,1.5-4.3
						c-0.8-1.8-2.7-1.8-4.4-1.7c-1.7,0.1-3.3,0.7-5,1c-5.2,1.1-8.8-1-10.2-5.8c-0.9-3.3-0.3-6.3,1.7-9c1.8-2.5,4.1-4.3,6.9-5.6
						c2.8-1.4,5.8-2.3,8.7-3.3C98.6,20.1,101.4,19.1,103.9,17.1z M129,66.3c-0.5,1.1-0.3,2.4-0.4,3.6c-1.2,14-6.9,27.2-16.2,37.7
						c-9.4,10.5-21.9,17.6-35.7,20.2c-34.5,6.8-68.6-16.1-75.4-50.5C-4.2,49.4,8.6,21.7,33.5,7.9c36.7-20.4,83.7,0.4,93.5,41.3
						c1,4.2,1.6,8.6,1.8,12.9c0,0.3-0.1,0.6,0.3,0.8L129,66.3z"/>
				</g>
				<g transform="matrix(1,0,0,1,0,0)">
				</g>
			</g>
			
				<g transform="matrix(0.39245373010635376,-0.9197717905044556,0.9197717905044556,0.39245373010635376,111.59437561035156,145.40036010742188)">
				<g transform="matrix(1,0,0,1,0,0)">
					<path class="st5" d="M0,57.4c0.2-8.3,2.1-16.5,5.6-24C12.4,18.9,23.2,8.4,38,2.1c1.8-0.7,3.6-1.3,5.4-2c0.6-0.2,1-0.1,1.2,0.6
						c1.2,4.6-0.2,8.5-4.2,11c-1.8,1.1-3.6,2.1-5.4,3.1c-2.5,1.5-4.7,3.3-5.6,6.2c-1.2,4,0.7,8.5,4.6,11.2c2.4,1.7,5.1,2.5,7.9,3.3
						c0.9,0.3,1.8,0.6,2.6,1c2.4,1.1,3.4,2.7,3.2,4.6c-0.3,2.3-2.1,4.2-4.5,4.7c-2.5,0.6-4.8-0.1-7-1.2c-1.8-0.9-3.4-2.1-5.3-2.8
						c-5-1.8-9.9,0.8-11.1,5.9c-0.5,2.3,0.1,4.5,1.4,6.5c0.7,1.1,1.5,2.2,2.2,3.3c1.3,2.3,0.3,4.3-2.4,4.7c-1.2,0.2-2.5,0.1-3.7-0.1
						C15.4,61.8,14,62.6,13,64c-1.8,2.6-1.9,5.4-1.1,8.3c0.6,2.3,1.6,4.4,2,6.7c0.4,2.6-0.6,4.7-2.6,6.3c-0.9,0.7-2,1.3-3.1,1.8
						C7.4,87.8,7,87.8,6.7,87c-3.3-6.6-5.4-13.8-6.3-21.1C0.1,63.1-0.1,60.3,0,57.4z"/>
				</g>
				<g transform="matrix(1,0,0,1,0,0)">
				</g>
			</g>
			
				<g transform="matrix(0.39245373010635376,-0.9197717905044556,0.9197717905044556,0.39245373010635376,154.870849609375,78.94749450683594)">
				<g transform="matrix(1,0,0,1,0,0)">
					<path class="st5" d="M45.4,45c-0.1,5.8-0.7,11-2,16.1c-0.3,1-0.6,1.1-1.4,0.4c-2.4-2.1-4.1-4.6-4.5-7.8
						c-0.8-6.6-5.2-8.7-10.5-8.9c-2.9-0.1-5.9,0.2-8.8,0.2c-1.7,0-3.4-0.5-4.8-1.5c-2.8-2-3-4.7-0.5-7c1.1-1,2.3-1.8,3.5-2.8
						c0.9-0.7,1.7-1.5,2.4-2.5c1.3-1.9,2.1-3.9,1-6.1c-1.1-2.3-3.2-3-5.6-3.2c-2.3-0.2-4.5,0.6-6.7,1.1c-5.2,1-8.8-3-7.1-8.1
						c1-3.2,3.4-5.1,6.2-6.7c2.7-1.5,5.6-2.4,8.5-3.4c3.4-1.1,6.7-2.4,9.5-4.6c0.8-0.6,1.1,0,1.5,0.4c4.2,4,7.9,8.7,10.8,13.7
						c5,8.6,7.8,18,8.3,28C45.2,43.4,45.3,44.4,45.4,45z"/>
				</g>
				<g transform="matrix(1,0,0,1,0,0)">
				</g>
			</g>
			
				<g transform="matrix(0.39245373010635376,-0.9197717905044556,0.9197717905044556,0.39245373010635376,208.13243103027344,146.3667449951172)">
				<g transform="matrix(1,0,0,1,0,0)">
					<path class="st5" d="M26.4,31.6c-8.8,0.3-17.7-1.4-25.8-4.9c-0.4-0.2-0.9-0.2-0.5-0.9c2.1-4.2,2.5-8.9,3.6-13.4
						c0.7-3,1.6-5.9,3.6-8.4c1.1-1.4,2.6-2.5,4.3-3.2c1.7-0.7,3.5-1,5.3-0.9s3.5,0.7,5.1,1.7c1.5,1,2.8,2.3,3.7,3.8
						c1.2,1.9,2,4.1,3,6.1c1.2,2.3,2.7,4.4,4.9,5.8c3.7,2.3,7.7,1.5,10.3-2.2c1.3-1.9,2.1-4,2.9-6.1c0.6-1.6,1.2-3.1,2.1-4.5
						c1.7-2.4,4-3.1,6.7-1.9c1.9,0.8,3.3,2.2,4.6,3.8c2.2,2.6,4.4,5.1,7.3,6.9c0.7,0.4,0.3,0.7,0,1c-6.8,6.5-14.7,11.3-23.7,14.2
						C38.2,30.5,32.3,31.5,26.4,31.6z"/>
				</g>
				<g transform="matrix(1,0,0,1,0,0)">
				</g>
			</g>
			
				<g transform="matrix(0.27460142970085144,-0.9615581631660461,0.9615581631660461,0.27460142970085144,190.21600341796875,111.72000122070312)">
			</g>
			
				<g transform="matrix(0.9979088306427002,0.06463681161403656,-0.06463681161403656,0.9979088306427002,199.3501739501953,43.804847717285156)">
				<g transform="matrix(1,0,0,1,0,0)">
					<path class="st6" d="M20.1,45.3c0.2,0.1,0.4,0.1,0.6,0.2c0.6,0.3,0.8,0.7,0.8,1.3c0,0.5,0,1-0.1,1.5c-0.1,1-0.6,1.8-1.3,2.5
						c-2.2,2-4.3,4.1-6.4,6.1c-0.3,0.3-0.4,0.6-0.4,1c0,5.6,0,11.1,0,16.7c0,2.5,0,5,0,7.5c0,0.5,0,1-0.1,1.5c0,0.2-0.1,0.3-0.2,0.4
						c-0.4,0.4-0.8,0.9-1.2,1.3c-0.6,0.6-1,0.5-1.3-0.3c-2-6-4-12.1-6-18.1C4.4,66.1,4,66,3.4,66.6C1.6,68.3-0.2,70-2,71.7
						c-0.1,0.1-0.2,0.3-0.2,0.5c-0.1,2.4-0.1,4.9-0.2,7.3c0,0.2-0.1,0.4-0.2,0.5c-0.5,0.5-1,1-1.4,1.5c-0.4,0.4-0.8,0.3-1.1-0.2
						c-0.1-0.1-0.1-0.3-0.2-0.4c-0.3-1.3-0.7-2.7-1-4C-6.5,76.2-7,76-7.5,76.5c-0.1,0.1-0.2,0.2-0.3,0.3c-0.6,0.7-1.4,0.9-2.3,0.9
						c-0.4,0-0.7-0.3-0.7-0.7c0-0.7,0.2-1.4,0.6-2c0.2-0.3,0.5-0.5,0.7-0.8c0.3-0.4,0.2-0.6-0.2-0.8c-0.3-0.1-0.6-0.2-0.9-0.2
						c-1.2-0.3-2.3-0.6-3.5-0.9c-0.3-0.1-0.5-0.2-0.6-0.5s0-0.5,0.2-0.8c0.4-0.4,0.8-0.8,1.3-1.2c0.1-0.1,0.3-0.3,0.5-0.3
						c0.2-0.1,0.4-0.1,0.6-0.1c2.2,0,4.4,0,6.6,0c0.2,0,0.3,0,0.5-0.1c0.1-0.1,0.3-0.2,0.4-0.3c1.7-1.8,3.4-3.6,5.1-5.4
						c0.4-0.4,0.3-1-0.3-1.2c-6.1-2-12.2-4-18.3-6c-0.4-0.1-0.6-0.7-0.3-1.1c0.5-0.5,1-1,1.5-1.5c0.1-0.1,0.4-0.2,0.6-0.2
						c2.6,0,5.1,0,7.7,0c5.9,0,11.9,0,17.8,0c0.1,0,0.3,0,0.4-0.1c0.1-0.1,0.2-0.1,0.3-0.2c1.9-2.1,3.9-4.1,5.8-6.2
						c0.9-0.9,1.9-1.5,3.2-1.7c0.1,0,0.1,0,0.2-0.1H20.1z"/>
				</g>
				<g transform="matrix(1,0,0,1,0,0)">
					<path class="st7" d="M20.1,45.3c0.2,0.1,0.4,0.1,0.6,0.2c0.6,0.3,0.8,0.7,0.8,1.3c0,0.5,0,1-0.1,1.5c-0.1,1-0.6,1.8-1.3,2.5
						c-2.2,2-4.3,4.1-6.4,6.1c-0.3,0.3-0.4,0.6-0.4,1c0,5.6,0,11.1,0,16.7c0,2.5,0,5,0,7.5c0,0.5,0,1-0.1,1.5c0,0.2-0.1,0.3-0.2,0.4
						c-0.4,0.4-0.8,0.9-1.2,1.3c-0.6,0.6-1,0.5-1.3-0.3c-2-6-4-12.1-6-18.1C4.4,66.1,4,66,3.4,66.6C1.6,68.3-0.2,70-2,71.7
						c-0.1,0.1-0.2,0.3-0.2,0.5c-0.1,2.4-0.1,4.9-0.2,7.3c0,0.2-0.1,0.4-0.2,0.5c-0.5,0.5-1,1-1.4,1.5c-0.4,0.4-0.8,0.3-1.1-0.2
						c-0.1-0.1-0.1-0.3-0.2-0.4c-0.3-1.3-0.7-2.7-1-4C-6.5,76.2-7,76-7.5,76.5c-0.1,0.1-0.2,0.2-0.3,0.3c-0.6,0.7-1.4,0.9-2.3,0.9
						c-0.4,0-0.7-0.3-0.7-0.7c0-0.7,0.2-1.4,0.6-2c0.2-0.3,0.5-0.5,0.7-0.8c0.3-0.4,0.2-0.6-0.2-0.8c-0.3-0.1-0.6-0.2-0.9-0.2
						c-1.2-0.3-2.3-0.6-3.5-0.9c-0.3-0.1-0.5-0.2-0.6-0.5s0-0.5,0.2-0.8c0.4-0.4,0.8-0.8,1.3-1.2c0.1-0.1,0.3-0.3,0.5-0.3
						c0.2-0.1,0.4-0.1,0.6-0.1c2.2,0,4.4,0,6.6,0c0.2,0,0.3,0,0.5-0.1c0.1-0.1,0.3-0.2,0.4-0.3c1.7-1.8,3.4-3.6,5.1-5.4
						c0.4-0.4,0.3-1-0.3-1.2c-6.1-2-12.2-4-18.3-6c-0.4-0.1-0.6-0.7-0.3-1.1c0.5-0.5,1-1,1.5-1.5c0.1-0.1,0.4-0.2,0.6-0.2
						c2.6,0,5.1,0,7.7,0c5.9,0,11.9,0,17.8,0c0.1,0,0.3,0,0.4-0.1c0.1-0.1,0.2-0.1,0.3-0.2c1.9-2.1,3.9-4.1,5.8-6.2
						c0.9-0.9,1.9-1.5,3.2-1.7c0.1,0,0.1,0,0.2-0.1H20.1z"/>
				</g>
			</g>
			<g transform="matrix(1,0,0,1,187.24200439453125,111.72000122070312)">
			</g>
			<g transform="matrix(1,0,0,1,209.5,92.177001953125)">
			</g>
		</g>
	</g>
</g>
</svg>
